<svg xmlns="http://www.w3.org/2000/svg" id="Capa_1" x="0" y="0" version="1.1" viewBox="0 0 2171 711" xml:space="preserve"><defs/><style>.st0{fill:#0d4f9e}.st1{fill:#faea27}</style><g id="Capa_1_1_"><path d="M111 108h754v503H111z" class="st0"/><path d="M472 217l16-12 16 12-6-19 16-11h-20l-6-19-6 19h-20l16 11zM390 239l16-12 16 12-6-19 16-11h-20l-6-19-6 19h-20l16 11zM346 250l-6 19h-20l16 12-6 18 16-11 16 11-7-18 17-12h-20zM324 370l15 12-6-19 17-12h-20l-6-19-7 19h-19l16 12-6 19zM352 434l-6-19-6 19h-20l16 11-6 19 16-12 16 12-7-19 17-11zM412 494l-6-19-6 19h-20l16 12-6 18 16-11 16 11-6-18 16-12zM494 516l-6-19-6 19h-20l16 12-6 18 16-11 16 11-6-18 16-12zM576 494l-6-19-6 19h-20l16 12-6 18 16-11 16 11-6-18 16-12zM637 434l-6-19-6 19h-20l16 11-6 19 16-12 16 12-6-19 16-11zM679 351h-20l-6-19-7 19h-19l16 12-6 18 16-11 15 11-6-18zM615 299l16-11 16 11-6-19 16-11h-20l-6-19-6 19h-20l16 11zM571 190l-6 19h-20l16 11-6 19 16-12 15 12-6-19 17-11h-20z" class="st1"/><g><path d="M958 207c-5-3-9-6-12-11s-4-9-4-15v-54l1-1 2-1h15l2 1v55c0 4 1 7 4 9s5 3 8 3c4 0 7-1 9-3s3-5 3-9v-54l1-1 1-1h16l2 1v55c0 6-1 11-4 15-2 5-6 8-11 11-5 2-10 3-17 3-6 0-12-1-16-3zM1067 152c4 4 6 10 6 17v38l-1 2-1 1h-16l-1-1-1-2v-34l-2-7c-1-2-4-3-6-3-3 1-5 1-6 3-2 2-2 4-2 7v34l-1 2-2 1h-15l-2-1v-59-2l2-1h15l2 1 1 2v3c4-4 8-6 15-6s11 1 15 5zM1085 140c-2-2-3-5-3-8 0-4 1-6 3-8 2-3 5-4 9-4s6 1 8 4c2 2 3 4 3 8s-1 6-3 8-5 3-8 3-7-1-9-3zm-1 69v-59-2l2-1h15l2 1 1 2v57l-1 2h-19zM1125 205c-5-4-9-9-11-16l-1-11 2-11c1-7 5-12 10-15 5-4 11-6 18-6s13 2 18 6c5 3 8 8 10 14a39 39 0 011 23c-2 6-5 12-10 16-5 3-12 5-19 5s-13-1-18-5zm24-14l3-6a30 30 0 000-14l-3-6-6-2-6 2-3 6-1 7 1 7 3 6c2 2 4 2 6 2s4 0 6-2zm-15-52v-2l6-10 3-2h15l1 1v2l-8 10c-1 1-1 2-3 2h-12l-2-1zM1232 152c4 4 6 10 6 17v38l-1 2-1 1h-16l-2-1v-36l-2-7c-1-2-4-3-6-3-3 1-5 1-6 3-2 2-3 4-3 7v36l-2 1h-15l-2-1-1-2v-57l1-2 2-1h15l2 1v5l1 1v-1c3-4 8-6 14-6s12 1 16 5zM1331 142l-1 1h-38v15h24l2 1v16h-25l-1 1v16h38l1 1 1 2v12l-1 2-1 1h-56l-1-1-1-2v-79l1-2 1-1h56l1 1 1 2v12l-1 2zM1377 148l2-1h15l2 1v61l-2 1h-15l-2-1-1-2v-3c1 0 0 0 0 0-4 4-9 7-15 7-7 0-11-2-15-6s-6-9-6-16v-39l1-2 1-1h16l2 1v36l2 7 6 2 6-2 3-5v-36-2zM1446 148l1 3-3 15-1 2-1-1a18 18 0 00-7 0l-6 3-3 6v33l-2 1h-15l-2-1-1-2v-57l1-2 2-1h15l2 1v4l1 1c3-4 8-6 12-6l7 1zM1462 205c-5-4-9-9-11-16l-1-11 2-11c1-7 5-12 10-15 5-4 11-6 18-6s13 2 18 6c5 3 8 8 10 14a39 39 0 011 23c-2 6-5 12-10 16-5 3-12 5-19 5s-13-1-18-5zm24-14l3-6a30 30 0 000-14l-3-6-6-2-6 2-3 6-1 7 1 7 3 6c2 2 4 2 6 2s4 0 6-2zM1579 179l-3 15c-2 5-5 9-9 12s-9 4-14 4c-6 0-10-1-13-5h-1v24l-1 2h-19v-82-1l2-1h15l2 1 1 1v4h1c3-5 7-7 13-7 5 0 10 2 15 5 4 4 7 8 9 14l2 14zm-22-1c0-4 0-7-2-10-1-3-4-4-7-4s-5 1-7 5l-2 9 2 11c2 3 4 4 7 4s6-1 7-4c2-3 2-6 2-11zM1624 192c2 0 4-1 5-3l2-1 1 1 8 9v3l-11 7a37 37 0 01-27 0c-5-2-8-5-11-9-4-5-6-12-6-21l1-11c2-6 5-11 10-15s11-6 18-6c8 0 15 3 20 8s8 12 9 21l1 7-2 2h-37v3l5 5 7 1c3 1 5 0 7-1zm-18-23l-1 2 1 1h17v-3l-3-4-6-2c-4 1-7 2-8 6zM1693 149l10 7c2 4 3 7 3 11v42h-19v-4l-1-1c-4 4-9 6-16 6-6 0-11-1-15-4s-6-7-6-13c0-7 2-11 7-15 4-3 10-5 18-5h12v-3c0-2 0-3-2-5l-6-2-4 1-3 3-1 1h-2l-16-1-2-2c1-4 2-7 5-9l10-7c4-2 8-2 13-2 6-1 10 0 15 2zm-9 45l3-6v-3l-1-1h-7l-7 2c-2 1-3 2-3 4l2 5 5 1 8-2zM988 293l-1 1h-33v21h24v7l-1 1h-23v28l-1 1h-7-1v-65-1h43l1 1v5l-1 1zM1000 349c-3-2-6-5-7-10l-2-11 2-12c1-4 4-7 7-9 4-3 8-4 13-4 4 0 8 1 11 4s6 5 8 9l1 12c1 5 0 8-1 11-2 5-4 8-7 10a22 22 0 01-25 0zm19-6c2-1 4-3 4-6l1-9-1-9c0-2-2-4-4-6l-7-2-6 2-4 6-1 9 1 9c0 3 2 5 4 6l7 2 6-2zM1079 308c3 3 5 7 5 12v32h-8-1v-30c0-4-1-6-3-8s-4-3-7-3l-7 2c-2 1-3 4-3 7v31l-1 1h-8l-1-1v-46l1-1h8l1 1v3c3-3 7-5 12-5s9 2 12 5zM1127 286h8v66h-8l-1-1v-3l-5 4-6 1c-5 0-9-1-12-3-3-3-5-6-6-10l-2-12 1-12c2-4 4-7 7-9a19 19 0 0118-3l5 4v-21l1-1zm-1 42l-2-12c-2-3-5-5-8-5-4 0-7 2-9 5s-3 7-3 12 1 9 3 12c1 3 5 5 9 5 3 0 6-2 8-5s2-7 2-12zM1156 349c-3-2-5-5-7-10l-2-11 2-12c1-4 4-7 7-9 4-3 8-4 13-4 4 0 8 1 12 4s5 5 7 9l2 12-2 11c-1 5-4 8-7 10a22 22 0 01-25 0zm19-6c2-1 4-3 5-6l1-9-1-9-5-6c-1-2-4-2-6-2a11 11 0 00-11 8l-1 9 1 9c1 3 2 5 4 6l7 2 6-2zM1266 293l-1 1h-34v21h24v7l-1 1h-23v21h34l1 1v7h-43-1v-65-1h44v7zM1307 304h8v48h-8l-1-1v-3c-3 3-7 5-12 5l-9-2-6-5c-2-3-2-6-2-9v-32-1h8l1 1v29l2 8c1 2 4 3 8 3 3 0 5-1 7-3s3-4 3-8v-29l1-1zM1355 304l1 2-2 6v1h-6c-3 0-5 1-7 3s-3 5-3 8v27l-1 1h-7-1v-47-1h8l1 1v5c3-4 7-6 12-6h5zM1371 349c-4-2-6-5-8-10l-1-11 1-12c2-4 4-7 7-9 4-3 8-4 13-4 4 0 8 1 12 4s6 5 7 9l2 12-2 11c-1 5-4 8-7 10a22 22 0 01-24 0zm19-6l4-6 1-9-1-9-4-6c-1-2-5-2-7-2a11 11 0 00-11 8l-1 9 1 9c1 3 2 5 4 6l7 2 7-2zM1457 328l-2 12c-1 4-3 7-6 9a19 19 0 01-18 3l-5-4v21l-1 1h-8l-1-1v-64l1-1h8v4h1l5-4 6-1c5 0 8 1 12 4 3 2 5 5 6 9l2 12zm-9 0c0-5-1-9-3-12s-5-5-9-5-6 2-8 5-3 7-3 12c1 5 1 9 3 12 2 4 5 5 8 5 4 0 7-1 9-4 2-4 3-8 3-13zM1500 339l1-1v1l4 2 1 1v1c-2 3-4 6-7 7-3 2-7 3-11 3-5 0-9-1-12-3s-5-5-7-9l-2-13 1-11c1-4 3-8 7-10 3-3 7-4 12-4 6 0 11 2 14 5s5 7 6 13l1 9-2 1h-30v6l5 6c2 2 4 2 8 2 5 0 8-2 11-6zm-20-26l-3 6-1 5h23l-1-5-4-6c-2-2-4-2-7-2l-7 2zM1527 349c-4-2-6-5-8-10l-1-11 1-12c2-4 4-7 8-9 3-3 7-4 12-4s9 1 12 4 6 5 7 9l2 12-2 11c-1 5-4 8-7 10a22 22 0 01-24 0zm19-6c2-1 3-3 4-6l1-9-1-9-4-6c-2-2-4-2-7-2a11 11 0 00-11 8l-1 9 1 9c1 3 2 5 4 6l7 2 7-2zM973 400h9v66h-8-1v-4h-1l-5 4-6 1c-4 0-8-1-11-3l-7-10-1-12 1-12c1-4 3-7 7-9a19 19 0 0117-3l5 4h1v-21-1zm0 42c0-5-1-9-3-12-1-3-4-5-8-5-3 0-6 2-8 5s-3 7-3 12l2 12c2 3 5 5 9 5s7-2 9-5l2-12zM1027 453l1-1 1 1 4 2v2c-1 3-4 6-7 7-3 2-7 3-11 3-5 0-8-1-11-3-4-2-6-5-7-9-2-4-3-8-3-13l1-11c1-4 4-8 7-10s8-4 12-4c6 0 11 2 14 5s5 7 6 13l1 9-1 1h-30l-1 1 1 5 4 6 8 2c5 0 9-2 11-6zm-19-26c-2 1-3 3-4 6l-1 5h23l-1-5c0-2-2-4-4-6l-7-2-6 2zM1067 466v-65-1h24c6 0 11 2 15 5 4 4 6 8 6 14v28c0 6-2 11-6 14-4 4-9 5-15 5h-23-1zm9-8h15c4 0 7-1 9-3s3-5 3-9v-26c0-4-1-7-3-9s-5-4-9-4h-15v51zM1156 453l1-1v1l4 2 1 1v1c-2 3-4 6-7 7-3 2-7 3-11 3-5 0-9-1-12-3s-5-5-7-9l-2-13 1-11c1-4 3-8 7-10s7-4 12-4c6 0 11 2 14 5s5 7 6 13l1 9-2 1h-30v1l1 5c0 2 2 4 4 6s4 2 8 2c5 0 8-2 11-6zm-19-26c-2 1-3 3-4 6l-1 5h23l-1-5-4-6c-2-2-4-2-7-2l-6 2zM1183 465c-3-1-6-3-7-5l-3-6v-1l1-1h8v1c0 2 1 4 3 5l7 2 7-2c2-1 3-3 3-5l-2-4-8-3-10-3-6-4-2-8c0-4 1-7 5-10s7-4 13-4l10 2c3 1 5 3 6 5l3 7-1 1h-7-1v-1c0-2-1-3-3-5l-7-2-7 2c-2 1-3 3-3 5l3 4 8 3 9 3c3 1 5 2 6 4 2 2 3 5 3 8 0 4-2 7-5 10s-8 4-14 4l-9-2zM1250 419c2 2 5 3 6 6 2 2 3 5 3 8v32l-1 1h-8l-1-1v-3l-6 4-8 1c-5 0-9-1-12-4s-4-6-4-11c0-4 1-8 5-11 3-3 8-4 14-4h11v-3c0-3 0-5-2-7l-7-2-7 1-3 4-1 1-7-1h-1l-1-1c1-3 3-6 7-9s7-3 13-3l10 2zm-4 38c2-2 4-4 4-7v-6h-10l-9 2-3 6c0 3 1 4 3 6l6 1 9-2zM1297 418l1 2-1 6-1 1h-6c-3 0-5 1-7 3s-3 4-3 7v29h-8-1v-47-1h9v6c3-4 7-7 12-7l5 1zM1332 418l1 2-1 6-1 1h-5c-3 0-6 1-8 3s-3 4-3 7v29h-8l-1-1v-46l1-1h8v6h1c2-4 6-7 11-7l5 1zM1348 463c-3-2-6-5-7-10l-2-11 2-12c1-4 4-7 7-9 4-3 8-4 12-4 5 0 9 1 12 4s6 5 8 9l1 12-1 11c-2 5-4 8-7 10a22 22 0 01-25 0zm19-6c2-1 3-3 4-6l1-9-1-9-4-6c-2-2-4-2-7-2a11 11 0 00-11 8l-1 9 1 9 4 6 7 2 7-2zM1394 466l-1-1v-64l1-1h8v66h-8zM1416 466v-65-1h9v66h-8-1zM1446 463c-3-2-6-5-7-10l-2-11 2-12c1-4 3-7 7-9 3-3 8-4 12-4 5 0 9 1 12 4s6 5 8 9l1 12-1 11c-2 5-4 8-8 10s-7 4-12 4c-4 0-8-1-12-4zm19-6c2-1 3-3 4-6l1-9-1-9-4-6c-2-2-4-2-7-2a11 11 0 00-11 8l-1 9 1 9 4 6 7 2 7-2zM1548 465l-13-28h-14v28l-1 1h-8l-1-1v-64l1-1h26c4 0 7 0 10 2l7 7c2 3 2 6 2 10s-1 8-3 11-6 5-10 6l13 29-1 1h-6l-2-1zm-27-57v22h16c3 0 6-1 8-3s3-5 3-8c0-4-1-6-3-8s-5-3-8-3h-16zM1600 453l1-1v1l4 2 1 1v1c-2 3-4 6-7 7-3 2-7 3-11 3-5 0-9-1-12-3s-5-5-7-9l-2-13 1-11c1-4 3-8 7-10s7-4 12-4c6 0 11 2 14 5s5 7 6 13l1 9-2 1h-30v6l5 6c2 2 4 2 8 2 5 0 8-2 11-6zm-20-26c-1 1-3 3-3 6l-1 5h22v-5l-4-6c-2-2-4-2-7-2l-7 2zM1649 418h9v46c0 7-2 13-6 16s-10 5-18 5h-4l-1-2v-5-1l1-1 4 1c5 0 9-1 12-3s3-6 3-11v-1h-1c-2 3-6 4-11 4-4 0-8-1-11-3-4-2-6-5-7-9l-1-12 1-12a18 18 0 0117-13c5 0 9 2 12 5h1v-3-1zm0 30v-6-6l-1-3-3-6-7-2-6 2-4 6-1 9 1 9c0 2 2 4 4 5 1 2 4 3 6 3 3 0 5-1 7-3 2-1 3-3 3-5l1-3zM1672 409c-2-1-2-2-2-4l2-5 4-1 5 1 1 5a6 6 0 01-6 6l-4-2zm0 57v-47-1h8l1 1v46l-1 1h-7-1zM1702 463c-3-2-6-5-7-10l-2-11 2-12c1-4 4-7 7-9 4-3 8-4 12-4 5 0 9 1 12 4s6 5 8 9l1 12-1 11c-2 5-4 8-7 10a22 22 0 01-25 0zm19-6c2-1 4-3 4-6l1-9-1-9c0-2-2-4-4-6s-4-2-7-2a11 11 0 00-10 8l-1 9 1 9c0 3 2 5 4 6l7 2 6-2zM1781 422c3 3 5 7 5 12v31l-1 1h-7-1v-30c0-4-1-6-3-8s-4-3-7-3l-7 2c-2 1-3 4-4 7v32h-8l-1-1v-46l1-1h8v4h1c3-3 7-5 12-5s9 2 12 5zM1827 419c3 2 5 3 6 6 2 2 3 5 3 8v32l-1 1h-7-1v-4h-1c-1 0 0 0 0 0l-6 4-8 1c-5 0-9-1-12-4s-4-6-4-11c0-4 2-8 5-11 4-3 8-4 15-4h10l1-1v-2c0-3-1-5-3-7l-7-2-6 1-4 4-1 1-7-1h-1v-1c0-3 2-6 6-9s8-3 13-3l10 2zm-4 38c2-2 4-4 4-7v-6h-10l-8 2c-3 2-4 4-4 6 0 3 1 4 3 6l6 1 9-2zM1849 466l-1-1v-64-1h9v66h-8zM937 546l6-15 1-1h2l1 1c1 1 0 0 0 0l-5 15-1 1h-3l-1-1zm11 0l6-15 1-1h1l1 1c0 1 0 0 0 0l-5 15-1 1h-2c-1 0-2 0-1-1zM975 588c-3-1-6-4-7-6-2-3-3-6-3-10v-41h1v-1h3l1 1c1 1 0 0 0 0v41c0 4 1 8 4 11 3 2 7 4 11 4 5 0 8-2 11-4 3-3 4-7 4-11v-41h1v-1h3l1 1c1 1 0 0 0 0v41c0 4-1 7-3 10-1 2-4 5-7 6-3 2-6 3-10 3l-10-3zM1048 550c2 3 4 7 4 11v28h-1v1h-3v-1h-1v-27c0-4-1-6-3-8s-4-4-8-4c-3 0-6 1-8 3-2 3-3 5-3 9v27l-1 1h-3v-1h-1v-41l1-1c0-1 0 0 0 0h4v5l5-4 7-2c5 0 8 2 11 4zM1092 550c2 3 3 6 3 11v29h-3-1v-5l-6 4-8 1-10-2c-3-2-4-5-4-10 0-4 2-7 5-9s7-4 13-4h10v-4c0-3-1-6-3-8-1-2-4-3-8-3l-7 2c-2 1-3 3-3 5l-2 1-2-1-1-1c1-3 2-5 5-7s6-3 10-3c5 0 9 2 12 4zm-5 34c3-2 4-4 4-7v-8h-10c-4 0-7 0-10 2s-3 4-3 7l2 7 8 2 9-3zM1178 550c3 3 4 6 4 10v29l-1 1h-2l-1-1v-28c0-3-1-6-3-8s-5-3-8-3l-8 3c-2 1-3 5-3 8v29h-3-1v-29c0-3-1-6-3-8l-8-2c-3 0-6 1-8 3-2 1-2 4-2 7v28l-1 1h-3-1v-42-1h4l1 1v4l5-4 7-2 7 2c2 1 4 3 5 6 2-3 3-5 6-6l8-2c4 0 7 2 9 4zM1222 550c3 3 4 6 4 11v29h-4l-1-1v-4l-6 4-8 1-10-2c-2-2-4-5-4-10 0-4 2-7 5-9s7-4 13-4h10v-4l-2-8c-2-2-5-3-8-3l-8 2c-1 1-3 3-3 5l-1 1-3-1-1-1c1-3 2-5 5-7s7-3 11-3c5 0 8 2 11 4zm-5 34c3-2 4-4 4-7v-8h-10c-4 0-7 0-10 2s-3 4-3 7 1 5 3 7l7 2c4 0 7-1 9-3zM1267 550c2 3 4 7 4 11v28h-1v1h-3v-1h-1v-27c0-4-1-6-3-8s-5-4-8-4-6 1-8 3c-2 3-3 5-3 9v27l-1 1h-3v-1h-1v-41l1-1h4v5l5-4 7-2c5 0 8 2 11 4zM1308 585l4-5 2-1 1 1 1 1c-1 3-3 5-6 7s-6 3-10 3-7-1-10-3l-5-8-2-12 1-6v-4c1-3 3-6 6-8 3-3 6-4 10-4 5 0 8 2 11 4s5 6 5 10l1 3a208 208 0 00-1 7h-28v8c1 2 2 4 5 6 2 2 4 3 8 3l7-2zm-20-19h24v-7a12 12 0 00-12-9c-3 0-6 1-8 3l-4 6v7zM1351 548l1 1-1 2-1 1h-5c-3 0-5 1-7 3-3 3-4 5-4 9v26h-3-1v-42-1h4l1 1v6l4-6 7-1 5 1zM1386 550c3 3 4 6 4 11v29h-4l-1-1v-4c1 0 1 0 0 0-1 2-3 3-6 4l-8 1-9-2c-3-2-4-5-4-10 0-4 1-7 4-9s8-4 13-4h11v-4c0-3-1-6-3-8s-5-3-8-3l-7 2-4 5-1 1-3-1-1-1 5-7c3-2 7-3 11-3 5 0 9 2 11 4zm-4 34c2-2 4-4 4-7v-8h-10c-5 0-8 0-10 2s-4 4-4 7 1 5 3 7l7 2c4 0 7-1 10-3zM1447 531l1-1h2l1 1c0 1 0 0 0 0v59h-3-1v-5l-5 4-7 1c-4 0-7-1-10-3-2-2-4-4-5-8l-1-11a105 105 0 011-10c1-4 3-7 5-9 3-2 6-3 10-3l7 2 5 4v-21zm0 44a90 90 0 000-13l-1-4-4-6-7-2-6 2c-2 2-4 4-4 6l-2 4a50 50 0 001 16c1 3 2 5 4 6l7 2c2 0 5 0 7-2 2-1 3-3 4-6l1-3zM1489 585c2-1 4-3 4-5l2-1 1 1 1 1c-1 3-3 5-6 7l-9 3c-4 0-8-1-10-3-3-2-5-5-6-8l-1-12v-6-4c1-3 3-6 6-8 3-3 6-4 10-4 5 0 9 2 11 4 3 2 5 6 6 10v3a208 208 0 00-1 7h-28l1 8c0 2 2 4 4 6s5 3 8 3l7-2zm-20-19h25l-1-7a12 12 0 00-12-9c-3 0-5 1-7 3l-4 6-1 7zM1556 550c2 3 4 7 4 11v28h-1v1h-3v-1h-1v-27c0-4-1-6-3-8s-4-4-8-4c-3 0-6 1-8 3-2 3-3 5-3 9v27l-1 1h-3v-1h-1v-58h1v-1h3l1 1c1 1 0 0 0 0v21l5-4 7-2c5 0 8 2 11 4zM1600 550c2 3 3 6 3 11v29h-3-1v-5l-6 4-8 1-10-2c-3-2-4-5-4-10 0-4 2-7 5-9s7-4 13-4h10v-4c0-3-1-6-3-8-1-2-4-3-8-3l-7 2c-2 1-3 3-3 5l-2 1-2-1-1-1c1-3 2-5 5-7s6-3 10-3c5 0 9 2 12 4zm-5 34c3-2 4-4 4-7v-8h-10c-4 0-7 0-10 2s-3 4-3 7l2 7 8 2 9-3zM1622 587c-3-2-4-5-5-8l-2-11 2-10c0-4 2-6 5-9 3-2 6-3 10-3s8 1 11 3c3 3 5 5 5 8l1 2v1l-1 1h-3l-1-1v-1c0-2-2-4-4-6s-5-2-8-2-5 0-7 2-4 4-4 7l-1 9 1 9c0 2 2 5 4 6l7 3c4 0 6-1 8-3l4-6 1-1h1l2 1h1v2c-1 3-3 6-6 8s-6 3-10 3-8-2-11-4zM1684 585l4-5 1-1 2 1 1 1-6 7c-3 2-6 3-10 3s-7-1-10-3-4-5-6-8l-1-12v-6l1-4c1-3 3-6 6-8 2-3 6-4 10-4s8 2 11 4 4 6 5 10l1 3a208 208 0 00-1 7h-28v8l4 6a15 15 0 0015 1zm-20-19h24v-7a12 12 0 00-12-9c-3 0-6 1-8 3l-4 6v7zM1727 548v3l-2 1h-4c-3 0-6 1-8 3-2 3-3 5-3 9v26h-4v-42-1h4v7l5-6 7-1 5 1zM1792 534h-32l-1 1v23h24v4h-24v23l1 1h32l1 1v2h-1v1h-36l-1-1c0-1 0 0 0 0v-58-1h37l1 1v2l-1 1zM1832 547h4v42l-1 1h-2l-1-1v-4l-1-1v1l-5 4-7 1c-4 0-7-1-10-3s-4-6-4-11v-28-1h4v28c0 4 1 6 3 8s5 4 8 4 6-1 8-4c2-2 3-4 3-8v-27l1-1zM1872 548v3l-2 1h-4c-3 0-6 1-8 3-2 3-3 5-3 9v26h-4v-42-1h4v7l5-6 7-1 5 1zM1886 587c-3-2-4-5-5-8l-1-11v-10c2-4 3-7 6-9s7-3 11-3 7 1 10 3 5 5 5 9l1 10v11a16 16 0 01-16 11c-4 1-8-1-11-3zm18-3c2-2 4-4 4-7l1-9-1-9c0-2-2-5-4-6l-8-3c-3 0-5 1-7 3-2 1-4 4-4 6l-1 9 1 9c0 3 2 5 4 7s4 3 8 3c3 0 5-1 7-3zM1960 568a105 105 0 01-1 11l-5 8c-3 2-6 3-10 3l-7-1-5-4v20l-1 1h-3l-1-1v-57l1-1h3l1 1v4l5-4 7-2c4 0 7 1 9 3 3 3 5 5 6 9l1 10zm-5 7a50 50 0 00-1-17c0-2-2-4-4-6s-4-2-7-2l-6 2-4 6-1 4a88 88 0 001 17l4 5c1 2 4 3 6 3 3 0 5-1 7-3l4-5 1-4zM1999 550c2 3 4 6 4 11v28l-1 1h-3-1v-5l-6 4-8 1-10-2c-3-2-4-5-4-10 0-4 2-7 5-9s7-4 13-4h10v-4l-2-8c-2-2-5-3-9-3l-7 2c-2 1-3 3-3 5l-1 1-3-1-1-1c1-3 2-5 5-7s6-3 11-3c4 0 8 2 11 4zm-5 34c3-2 4-4 4-7v-8h-10c-4 0-7 0-10 2s-3 4-3 7 1 5 3 7l7 2c4 0 7-1 9-3zM2017 532l-6 15h-3v-1l4-15 2-1h2l1 2zm10 0l-5 15h-3-1v-1l5-15 1-1h3v2z"/></g></g></svg>