<svg xmlns="http://www.w3.org/2000/svg" xmlns:xlink="http://www.w3.org/1999/xlink" viewBox="0 0 113.4 56.7"><defs><path id="reuse-45" d="M66.6 24.8l2.2 3.4-2.2-3.4" class="st7"/><path id="reuse-44" d="M66.8 24.9l2.1 3.3-2.1-3.3" class="st12"/><path id="reuse-43" d="M67.1 25l2 3.1-2-3.1" class="st18"/><path id="reuse-42" d="M67.5 25.2l1.8 2.8-1.8-2.8" class="st27"/><path id="reuse-41" d="M68.2 24.9h-1.6 1.6" class="st12"/><path id="reuse-40" d="M68.2 24.9h-1.5 1.5" class="st16"/><path id="reuse-39" d="M68.2 24.9h-1.4 1.4" class="st18"/><path id="reuse-38" d="M68.1 25.7h-.2.2" class="st22"/><path id="reuse-37" d="M68.1 25.8h-.2.2" class="st6"/><path id="reuse-36" d="M69.7 27.3l-1.5-2.4 1.5 2.4" class="st14"/><path id="reuse-35" d="M73.7 20.2l-4.2 6.9 4.2-6.9" class="st8"/><path id="reuse-34" d="M73.8 20.2l-4.2 6.9 4.2-6.9" class="st11"/><path id="reuse-33" d="M73.8 20.3l-4.2 6.9 4.2-6.9" class="st14"/><path id="reuse-32" d="M73.9 20.3l-4.2 7 4.2-7" class="st19"/><path id="reuse-31" d="M74 20.4l-4.3 7.1 4.3-7.1" class="st24"/><path id="reuse-30" d="M74.1 20.5l-4.3 7.1 4.3-7.1" class="st29"/><path id="reuse-29" d="M74.3 20.7L69.9 28l4.4-7.3" class="st48"/><path id="reuse-28" d="M68.6 28.3l.4.4.5.2h.3l-.1-.1-1.1-.5c0 .1-.1.1 0 0-.1 0-.1 0 0 0-.1 0-.1 0 0 0" class="st31"/><path id="reuse-27" d="M67 26h.7-.7" class="st9"/><path id="reuse-26" d="M68.7 28.1l.1-.1h.1l.1-.1-.3.2" class="st14"/><path id="reuse-25" d="M68.7 28.1l.1-.1h.1l.1-.1-.3.2c0-.1 0 0 0 0" class="st16"/><path id="reuse-24" d="M68.7 28.1l.1-.1h.1l.1-.1.1-.1-.1.1-.3.2c.1-.1 0 0 0 0" class="st21"/><path id="reuse-23" d="M68.7 28.1l.1-.1h.1l.1-.1.1-.1-.1.1-.3.2" class="st30"/><path id="reuse-22" d="M68.7 28.1l.1-.1h.1l.1-.1.1-.1v.1l-.4.2" class="st31"/><path id="reuse-21" d="M68.9 28.3" class="st6"/><path id="reuse-20" d="M69 28l-.1.1v.2-.1l.1-.2-.1.1.1-.1M69.1 28" class="st18"/><path id="reuse-19" d="M69 28l-.1.1v.2-.1l.1-.2-.1.1.1-.2v.1" class="st22"/><path id="reuse-18" d="M69 28l-.1.1v.2-.1l.1-.2v-.1.1s0 .1 0 0l.1-.1-.1.1" class="st27"/><path id="reuse-17" d="M69 28l-.1.1v.2-.1l.1-.2v-.1c.1.1 0 .1 0 .1l.1-.1-.1.1c.1 0 .1 0 0 0" class="st30"/><path id="reuse-16" d="M69 28l-.1.1v.2-.1l.1-.2v-.2c.1.1.1.2 0 .2l.1-.1-.1.1c.1 0 .1 0 0 0" class="st31"/><path id="reuse-15" d="M69.2 28.2" class="st14"/><path id="reuse-14" d="M69.1 28" class="st19"/><path id="reuse-13" d="M69.2 28.2l-.2-.3v.1l.2.2M69.1 28c0 .1 0 .1 0 0 0 .1 0 .1 0 0v0M69.1 27.9" class="st28"/><path id="reuse-12" d="M69.1 28c0 .1 0 .1 0 0 0 .1 0 .1 0 0v.1l-.1-.2.1.1.1.1-.1-.1M69.1 27.9" class="st30"/><path id="reuse-11" d="M69.1 27.9v.1c0 .1-.1 0 0-.1-.1 0-.1 0 0 0-.1 0-.1 0 0 0l.1.2-.1-.2M69.1 27.9" class="st31"/><path id="reuse-10" d="M75.3 20.3h-1.6 1.6" class="st9"/><path id="reuse-9" d="M75.3 20.3h-1.5 1.5" class="st14"/><path id="reuse-8" d="M75.3 20.3h-1.4 1.4" class="st17"/><path id="reuse-7" d="M75.2 20.4H74h1.2" class="st21"/><path id="reuse-6" d="M74.9 20.6h-.7v-.1l.7.1" class="st28"/><path id="reuse-5" d="M74.8 21.1h-.2.2" class="st23"/><path id="reuse-4" d="M74.8 21.2h-.2.2" class="st6"/><path id="reuse-3" d="M70.5 28.2l4.7-7.8-4.7 7.8" class="st12"/><path id="reuse-2" d="M73.1 21.4h.8-.8" class="st15"/><path id="reuse-1" d="M73.2 21.4h.7-.7" class="st11"/><path id="reuse-0" d="M73.2 21.3l.7.1-.7-.1" class="st6"/></defs><style>.st0,.st1,.st2{fill-rule:evenodd;clip-rule:evenodd}.st0{display:none;fill:#e52813}.st1,.st2{fill:#54565a}.st2{fill:#e52813}.st3{fill:#687d93}.st5{fill:#848484}.st6{fill:#898989}.st7{fill:#8d8d8d}.st8{fill:#929292}.st9{fill:#969696}.st10{fill:#9b9b9b}.st11{fill:#a0a0a0}.st12{fill:#a4a4a4}.st13{fill:#a9a9a9}.st14{fill:#adadad}.st15{fill:#b2b2b2}.st16{fill:#b6b6b6}.st17{fill:#bbb}.st18{fill:silver}.st19{fill:#c4c4c4}.st20{fill:#c9c9c9}.st21{fill:#cdcdcd}.st22{fill:#d2d2d2}.st23{fill:#d7d7d7}.st24{fill:#dbdbdb}.st25{fill:#e0e0e0}.st26{fill:#e4e4e4}.st27{fill:#e9e9e9}.st28{fill:#ededed}.st29{fill:#f2f2f2}.st30{fill:#f3f3f3}.st31{fill:#f4f4f4}.st36{fill:#f5f5f5}.st48{fill:#f6f6f6}.st54{fill:#383d42}</style><g id="capa_principal"><path d="M98.8 19.8h.4v17h-.4zM14.2 19.8h.4v17h-.4z" class="st0"/><path d="M34 23.3h-1.6v4.8H34v-.3h-1.1v-2.2h1v-.3h-1v-1.7H34v-.3zM34.7 28.1h-.3v-4.8h.3l2 3.8v-3.8h.2v4.8h-.2l-2-3.7v3.7zM32 27.5c-.3.7-1.3.8-1.8.5-.7-.4-.9-2-.7-2.9.1-.8.5-1.7 1.4-1.7.5 0 .9.3 1.1.7l-.3.2c-.2-.7-1.1-.8-1.4-.3-.3.5-.3 1-.3 1.6 0 .8.2 1.7.3 1.9.4.6 1 .3 1.3 0v-1.8h.4v1.8zM43.5 26.6l.1.2h-1.4l-.3 1.3h-.3l1.2-4.8h.2l1.4 4.8h-.5l-.3-1.3-.7-2.6-.7 2.4h1.3zM40.1 25.6c.5.1 1-.1 1-1 0-.7-.5-1-1-1v4.5h-.5v-4.7c.9 0 1.3.2 1.5.4.2.2.4.4.4.9 0 .4-.3 1-.9 1.2l1 2.2h-.5l-1-2.2H40v-.3h.1zM44.8 23.3h.4v4.5h1.2v.3h-1.6v-4.8zM46.9 23.3h.4v4.8h-.4v-4.8zM47.9 23.3H50v.3h-.8v4.5h-.4v-4.5h-.9v-.3zM39.1 23.3h-1.6v4.8h1.6v-.3H38v-2.2h1v-.3h-1v-1.7h1.1v-.3zM29.6 28.8l1.1 4.7h.3l1.2-4.7H32l-1 3.8-1-3.8h-.4zM51.4 26.6l.1.2h-1.4l-.3 1.3h-.3l1.3-4.8h.2l1.3 4.8h-.5l-.3-1.3-.7-2.6-.6 2.4h1.2zM51.7 23.3h2.2v.3H53v4.5h-.4v-4.5h-.9v-.3zM43.1 33.6c-1.1.1-1.5-1.1-1.5-2.5 0-1.1.3-2.4 1.4-2.3.6 0 .9.3 1 .8l-.3.2c-.1-.2-.2-.6-.7-.7-.8-.1-.9 1.1-1 2 0 1 0 2.2 1 2.2.4 0 .7-.4.7-.8l.3.2c.1.4-.1.8-.9.9zM33.6 32.1l.1.2h-1.4l-.3 1.2h-.3l1.2-4.7h.2l1.4 4.7H34l-.3-1.2-.8-2.6-.6 2.4h1.3zM34.7 28.8h.5v4.5h1.2v.2h-1.7v-4.7zM38.2 28.8h-1.5v4.7h1.5v-.2h-1.1v-2.2h1v-.3h-1v-1.7h1.1v-.3zM38.9 33.5h-.2v-4.7h.2l2 3.8v-3.8h.3v4.7h-.3l-2-3.7v3.7zM44.5 28.8h.5v4.7h-.5v-4.7zM47.2 32.1l.1.2h-1.4l-.3 1.2h-.3l1.3-4.7h.2l1.3 4.7h-.5l-.3-1.2-.7-2.6-.6 2.4h1.2zM48.7 33.5h-.3v-4.7h.2l2 3.8v-3.8h.3v4.7h-.3l-1.9-3.7v3.7zM53.1 32.1v.2h-1.3l-.4 1.2h-.2l1.2-4.7h.2l1.3 4.7h-.4l-.4-1.2-.7-2.6-.6 2.4h1.3z" class="st1"/><g><path d="M25.2 24.6l-.2-.1c.3-.4.4-.9.3-1.4l.7-.6-.5-.7.2-.1-.7-.3.1-.1c-.3-.1-.7-.1-1.1.1l-.1-.1v.2h-.2v-.3l-.2.3c-.1.1-.3.3-.3.5-.1.1-.2 0-.3.3v.2l.1-.1c.1-.1.3-.2.4-.1l.1.3-.1.2c-.1.1 0 .1 0 .1l.1-.2c0 .3-.1.5-.3.6l.1-.3c-.2 0-.2-.2-.1-.4.2-.2.1-.3 0-.2l-.2.2c-.2.1-.4.1-.4-.2 0-.4.2-.5.3-.6 0-.2.1-.4.3-.5.1-.3.3-.6.7-.7l-.1.3.3-.2c0 .1-.1.1 0 .2.6 0 1-.1 1.4.2l-.1.1c.3.1.6.3.8.6H26l.2.3c.8-.5 1.6-.8 2.2-1-.1.4-.2.7 0 1a1 1 0 00-.1.9 1 1 0 00-.3.7c-.3.1-.6.2-.7.7-.3.1-.6.2-.7.4l-.3-.1c.2-.3.4-.4.8-.5.1-.3.3-.5.7-.7 0-.2.1-.4.3-.5-.1-.3-.1-.5.1-.8l-.1-.6c-.8.2-1.6.7-2.4 1.3-.1.8-.2 1.3-.5 1.7z" class="st2"/><path d="M23.3 21.9l.1.2.2-.2v-.1l-.3.1zM22.9 23l.1.2-.2.3-.2.1-.1.1-.1-.2.3-.1.1-.1.1-.3zM23.7 23.1l-.1-.3.1-.2c.2-.1.5-.2.5-.5.8.2.6 1 .2 1.2l-.9.7c-.2.3-.5.6-.5 1h-.2c0-.4.2-.7.6-1.1l1-.9c.2-.2.2-.5 0-.6-.1.2-.2.3-.4.3l-.3.4zM26.1 23.4v-.2l1.5-.7v.3l-1.5.6zM26 23.8l.1-.2 1.4-.2v.3l-1.5.1zM26 23.9l1 .1-.1.2-1-.1.1-.2z" class="st2"/><path d="M23.1 24.1l-.1.2-.3-.4.1-.2.3.4zM22.9 24.4l-.1.2-.4-.3.1-.2.4.3zM22.8 24.7v.2l-.4-.1v-.2l.4.1zM24.6 24.6c.2.1.2.2.1.4l.3.2-.3.2c.2.2.5.3.7.1a.2.2 0 01-.2-.2l.3-.1c-.1-.1-.1-.3.2-.3.2.1.2.3.1.4l.3.2-.3.2c.1.2.4.3.7.1-.1-.1-.2-.1-.2-.3l.3-.1c-.1-.2 0-.3.2-.3l-.3.9a1 1 0 01-1-.2c-.4.2-.7.2-1-.1-.3.2-.6.3-1 .1-.2.3-.6.4-.9.3l-.3-1.1c.2 0 .3.1.2.3l.3.1-.1.3c.2.1.5.1.7-.2l-.3-.1.3-.2c-.1-.1-.1-.2.1-.4.2.1.2.2.2.3l.3.1-.2.2c.3.2.6.1.7-.1-.1 0-.2 0-.3-.2l.3-.2c-.1 0-.1-.1.1-.3z" class="st2"/><path d="M22.8 26.2l.1.2a4 4 0 011.7-.3c.7 0 1.4.1 1.7.3l.1-.2c-.4-.2-1.1-.3-1.8-.3-.8 0-1.4.2-1.8.3z" class="st2"/><path d="M26.4 29.6l.2.1-.2.4c-.1.2.1.3.2.2l.3-.4.3-.3-.5-.5h.3l.7.6.1-.2c-.7-.5-1-.8-1.5-1.4l.3-.1c.4.5.8.9 1.2 1.1l.3-.4c-1-.7-1.4-1.3-2.1-2.3l.4.1c.6 1 1.3 1.7 2.1 2.1-.1.3-.2.5-.4.6l.1.1c-.2.5-.4.9-.8 1.3l-.5-.4.1-.2.3.2.2-.3c0-.1 0-.2-.2-.2l-.5.5-.2.2-.4.1a4 4 0 01-1-1.2l-.5.1-.1-.2-.6-2-1.3.7c.3.5.5 1.7.3 2.5l.6-.4 1-.7.1.2a6 6 0 00-1.4 1c-.2.2-.6.2-.5-.2.3-1-.1-2.1-.4-2.6l1-.4.2-.1H23l-.1-.8.2-.1.1.7h.7l.2-.1c.2-.1.3 0 .3.1l.6 2.1.2-.1c-.4-1-.5-1.8-.6-2.9h.3c.4 1.4 1 2.9 2 3.3l-.2.2c-.9-.5-1.4-1.7-1.7-2.7.2 1.1.6 2.4 1.3 3l.1-.3z" class="st2"/><path d="M25.6 27.6l-.1-.3h-.1l.1-.3h-.3v-.3l.3.1v-.3h.3l-.1.3h.3v.3l-.3-.1v.3h-.1v.3zM27.3 33.3a8.7 8.7 0 00-2.4-3.7l-.5.4 2.9 3.3zM24.8 35.6l-2.9-3.3-.5.4a9.1 9.1 0 003.4 2.9zM25.8 35.8h.8l-3.8-4.4-.5.4 3.5 4zM27.3 35.3l.1-.8-3.5-4-.5.5 3.9 4.3z" class="st2"/></g><g><path d="M92.2 27.4l-1 1.4h-4.9v-5h5.9l-1 1.4h-3.3v.5h4L91 27h-3.1v.5h4.3zM73.8 28.8l.9-1.4h1.8l.4.1-.2-.3-.3-.4-.9-1.3-2.4 3.4h-1.9l3.2-4.6.4-.4.6-.2.6.2.4.4 3.2 4.6h-5.8zM85.5 27.4l-1 1.4H82a5 5 0 01-1.2-.2l-1-.5c-.3-.2-.5-.5-.6-.8-.2-.3-.2-.7-.2-1l.2-1 .6-.8 1-.5 1.2-.2h3.5l-1 1.1H82l-.6.2-.5.3-.3.4-.1.5.1.5.3.4.5.2h4.1z" class="st3"/><defs><path id="SVGID_1_" d="M74.4 20.7c-.1.1-.5.3-.5.9h-1l1.5-.9z"/></defs><clipPath id="SVGID_2_"><use overflow="visible" xlink:href="#SVGID_1_"/></clipPath><g clip-path="url(#SVGID_2_)"><path d="M74.4 20.7l-.1.1h-.1v.6h-.7c.1-.3.6-.5.9-.7" class="st5"/><use class="st6" xlink:href="#reuse-0"/><use class="st7" xlink:href="#reuse-0"/><use class="st8" xlink:href="#reuse-0"/><use class="st9" xlink:href="#reuse-0"/><path d="M73.2 21.3l.7.1h-.7v-.1" class="st10"/><use class="st11" xlink:href="#reuse-1"/><use class="st12" xlink:href="#reuse-1"/><use class="st13" xlink:href="#reuse-1"/><path d="M73.2 21.4h.7-.8.1" class="st14"/><use class="st15" xlink:href="#reuse-2"/><use class="st16" xlink:href="#reuse-2"/><use class="st17" xlink:href="#reuse-2"/><use class="st18" xlink:href="#reuse-2"/><use class="st19" xlink:href="#reuse-2"/><use class="st20" xlink:href="#reuse-2"/><use class="st21" xlink:href="#reuse-2"/><use class="st22" xlink:href="#reuse-2"/><use class="st23" xlink:href="#reuse-2"/><use class="st24" xlink:href="#reuse-2"/><use class="st25" xlink:href="#reuse-2"/><use class="st26" xlink:href="#reuse-2"/><use class="st27" xlink:href="#reuse-2"/><use class="st28" xlink:href="#reuse-2"/><use class="st29" xlink:href="#reuse-2"/><path d="M73.1 21.4h.8-.8M73.1 21.4h.8-.8" class="st30"/><path d="M73.1 21.4h.8-.9.1M73 21.4h.9-.9M73 21.4h.8v.1h-1l.2-.1M72.9 21.5h1-1" class="st31"/></g><path fill="#ebebeb" d="M73.8 21.5l-4.7 7.7-1.9-3.1h.8l1.1 1.7c0-.2.2.1.1.1 0 0 .2-.2 0 0h-.1l.1-.1 3.8-6.3c1.3.1.8 0 .8 0z"/><defs><path id="SVGID_3_" d="M75.3 20.3l-4.8 8c.1-.1-.1-.4-.5-.8l3.8-6.3 1.5-.9z"/></defs><clipPath id="SVGID_4_"><use overflow="visible" xlink:href="#SVGID_3_"/></clipPath><g clip-path="url(#SVGID_4_)"><path d="M70 27.5l3.8-6.3-3.8 6.3c0 .1 0 .1 0 0M70 27.6l3.8-6.3h.1L70 27.6" class="st31"/><path d="M70 27.6l3.8-6.3h.1L70 27.6" class="st31"/><path d="M70 27.6l3.8-6.4h.1L70 27.6" class="st31"/><path d="M70.1 27.6l3.9-6.4h.1l-4 6.4" class="st30"/><path d="M70.1 27.6l3.9-6.5h.1l-4 6.5c0 .1 0 0 0 0" class="st30"/><path d="M70.1 27.7l3.9-6.6h.1l-4 6.6" class="st29"/><path d="M70.1 27.7l4-6.6h.1l-4.1 6.6c.1 0 0 0 0 0" class="st28"/><path d="M70.2 27.7l4-6.7h.1l-4.1 6.7" class="st27"/><path d="M70.2 27.8l4.1-6.8.1-.1-4.2 6.9" class="st26"/><path d="M70.2 27.8l4.1-6.9.1-.1-4.2 7c.1 0 .1 0 0 0" class="st25"/><path d="M70.3 27.8l4.2-7 .1-.1-4.3 7.1c0 .1 0 0 0 0" class="st24"/><path d="M70.3 27.9l4.2-7.1.1-.1-4.3 7.2" class="st23"/><path d="M70.3 27.9l4.3-7.1h.1l-4.4 7.1c.1 0 .1 0 0 0" class="st22"/><path d="M70.4 27.9l4.3-7.2h.1l-4.4 7.2c0 .1 0 0 0 0" class="st21"/><path d="M70.4 28l4.4-7.3h.1L70.4 28" class="st20"/><path d="M70.4 28l4.4-7.4h.1L70.4 28" class="st19"/><path d="M70.4 28l4.5-7.5h.1L70.4 28c.1 0 0 0 0 0" class="st18"/><path d="M70.5 28.1l4.5-7.5-4.5 7.5" class="st17"/><path d="M70.5 28.1l4.5-7.6-4.5 7.6" class="st16"/><path d="M70.5 28.1l4.6-7.6-4.6 7.6" class="st15"/><path d="M70.5 28.1l4.6-7.7-4.6 7.7" class="st14"/><path d="M70.5 28.2l4.6-7.7-4.6 7.7" class="st13"/><use class="st12" xlink:href="#reuse-3"/><use class="st11" xlink:href="#reuse-3"/><use class="st10" xlink:href="#reuse-3"/><path d="M70.5 28.2l4.7-7.9-4.7 7.9" class="st9"/><path d="M70.5 28.2l4.7-7.9-4.7 7.9c0 .1 0 .1 0 0" class="st8"/><path d="M70.5 28.3l4.8-7.9-4.8 7.9" class="st7"/><path d="M70.5 28.3l4.8-8-4.8 8" class="st6"/><path d="M70.5 28.3l4.8-8-.2.4-.3.4-.2.4-.2.4-.3.4-.2.4-.3.4-.2.4-.2.4-.3.4-.2.4-.3.4-.2.4-.2.4-.3.4-.2.4-.3.4-.2.4-.2.4-.3.4" class="st5"/></g><defs><path id="SVGID_5_" d="M74.8 20.7l-.1.5h-.1c-.3-.6-.7-1.1-.9-1.1h1.6l-.3.2-.2.4z"/></defs><clipPath id="SVGID_6_"><use overflow="visible" xlink:href="#SVGID_5_"/></clipPath><g clip-path="url(#SVGID_6_)"><path d="M74.8 21.3h-.1v-.1l.1.1" class="st5"/><use class="st6" xlink:href="#reuse-4"/><use class="st7" xlink:href="#reuse-4"/><use class="st8" xlink:href="#reuse-4"/><use class="st9" xlink:href="#reuse-4"/><use class="st10" xlink:href="#reuse-4"/><use class="st11" xlink:href="#reuse-4"/><use class="st12" xlink:href="#reuse-4"/><use class="st13" xlink:href="#reuse-4"/><use class="st14" xlink:href="#reuse-4"/><use class="st15" xlink:href="#reuse-4"/><use class="st16" xlink:href="#reuse-4"/><use class="st17" xlink:href="#reuse-4"/><use class="st18" xlink:href="#reuse-4"/><use class="st19" xlink:href="#reuse-4"/><path d="M74.8 21.2h-.2v-.1l.2.1" class="st20"/><path d="M74.8 21.2l-.2-.1.2.1" class="st21"/><path d="M74.8 21.2l-.2-.1h.2v.1" class="st22"/><use class="st23" xlink:href="#reuse-5"/><use class="st24" xlink:href="#reuse-5"/><use class="st25" xlink:href="#reuse-5"/><use class="st26" xlink:href="#reuse-5"/><use class="st27" xlink:href="#reuse-5"/><use class="st28" xlink:href="#reuse-5"/><path d="M74.8 21.1H74.5h.3" class="st29"/><path d="M74.8 21.1h-.3.3M74.8 21.1h-.3.3" class="st30"/><path d="M74.8 21.1h-.3.3M74.8 21.1h-.3.3M74.8 21.1h-.3.3M74.8 21.1h-.2V21l.2.1M74.8 21h-.3v-.1l.3.1M74.8 20.9h-.3v-.1l.3.1" class="st31"/><path d="M74.8 20.9h-.4v-.1l.4.1" class="st31"/><path d="M74.8 20.8h-.4v-.1l.4.1M74.8 20.7h-.5v-.1l.5.1" class="st30"/><path d="M74.8 20.7h-.6v-.1l.6.1" class="st29"/><use class="st28" xlink:href="#reuse-6"/><use class="st27" xlink:href="#reuse-6"/><path d="M75 20.6h-.8.8" class="st26"/><path d="M75 20.5h-.9.9c.1 0 0 0 0 0" class="st25"/><path d="M75.1 20.5h-1 1" class="st24"/><path d="M75.1 20.5H74h1.1c0-.1 0-.1 0 0" class="st23"/><path d="M75.1 20.4H74h1.1c.1 0 .1 0 0 0" class="st22"/><use class="st21" xlink:href="#reuse-7"/><use class="st20" xlink:href="#reuse-7"/><path d="M75.2 20.4h-1.3 1.3" class="st19"/><path d="M75.3 20.4H74h1.3c0-.1 0-.1 0 0" class="st18"/><use class="st17" xlink:href="#reuse-8"/><use class="st16" xlink:href="#reuse-8"/><use class="st15" xlink:href="#reuse-8"/><use class="st14" xlink:href="#reuse-9"/><use class="st13" xlink:href="#reuse-9"/><use class="st12" xlink:href="#reuse-9"/><use class="st11" xlink:href="#reuse-9"/><use class="st10" xlink:href="#reuse-9"/><use class="st9" xlink:href="#reuse-10"/><use class="st8" xlink:href="#reuse-10"/><path d="M75.3 20.3l-1.6-.1h.6l.1.1H75.3" class="st7"/></g><defs><path id="SVGID_7_" d="M69.2 28.2l-.2-.3h.1l.1.3z"/></defs><clipPath id="SVGID_8_"><use overflow="visible" xlink:href="#SVGID_7_"/></clipPath><g clip-path="url(#SVGID_8_)"><path d="M69.2 28.2l-.2-.3h.1l.1.3" class="st31"/><path d="M69.1 27.9v.1c0 .1-.1 0 0-.1-.1 0 0 0 0 0" class="st31"/><use class="st31" xlink:href="#reuse-11"/><use class="st31" xlink:href="#reuse-11"/><path d="M69.1 28c0 .1 0 .1 0 0 0 .1 0 .1 0 0v.1l-.1-.2.1.1.1.1-.1-.1c0-.1 0 0 0 0M69.1 27.9c0 .1 0 .1 0 0 0 .1 0 .1 0 0" class="st31"/><use class="st30" xlink:href="#reuse-12"/><use class="st30" xlink:href="#reuse-12"/><use class="st29" xlink:href="#reuse-12"/><use class="st28" xlink:href="#reuse-13"/><use class="st27" xlink:href="#reuse-13"/><use class="st26" xlink:href="#reuse-13"/><use class="st25" xlink:href="#reuse-13"/><path d="M69.2 28.2l-.2-.3v.1l.2.2M69.2 28.2s0-.1 0 0M69.1 28s0 .1 0 0c0 .1 0 0 0 0M69.1 27.9" class="st24"/><g><path d="M69.2 28.2l-.2-.3v.1l.2.2M69.1 28s0 .1 0 0M69.1 27.9" class="st23"/></g><g><path d="M69.2 28.2l-.2-.3v.1l.2.2M69.2 28.2c-.1-.1-.1-.1 0 0-.1-.1 0 0 0 0M69.1 27.9" class="st22"/></g><g><path d="M69 28s.1 0 0 0c0-.1 0-.1 0 0 0-.1 0 0 0 0M69.2 28.2s-.1-.1 0 0c-.1-.1 0 0 0 0M69.2 28.2c0-.1-.1-.1 0 0-.1-.1 0 0 0 0M69.1 28" class="st21"/></g><g><path d="M69 28s0-.1 0 0c0-.1 0-.1 0 0 0-.1 0 0 0 0M69.2 28.2c-.1-.1 0 0 0 0M69.2 28.2c0-.1 0 0 0 0M69.1 28" class="st20"/></g><g><use class="st19" xlink:href="#reuse-14"/></g><g><use class="st18" xlink:href="#reuse-14"/></g><g><use class="st17" xlink:href="#reuse-14"/></g><g><use class="st16" xlink:href="#reuse-14"/></g><g><use class="st15" xlink:href="#reuse-14"/></g><use class="st14" xlink:href="#reuse-15"/><use class="st13" xlink:href="#reuse-15"/><use class="st12" xlink:href="#reuse-15"/><use class="st11" xlink:href="#reuse-15"/><use class="st10" xlink:href="#reuse-15"/><path d="M69.1 28l.1.1-.1-.1c-.1-.1-.1-.1 0 0 0-.1 0 0 0 0" class="st31"/><path d="M69.1 28l.1.1-.1-.1c-.1 0 0 0 0 0" class="st31"/><path d="M69.1 28.1s0-.1 0 0c0-.1 0-.1 0 0 0-.1 0-.1 0 0M69.1 28" class="st36"/></g><defs><path id="SVGID_9_" d="M68.9 28.3l.2-.4-.2.4z"/></defs><clipPath id="SVGID_10_"><use overflow="visible" xlink:href="#SVGID_9_"/></clipPath><g clip-path="url(#SVGID_10_)"><path d="M68.9 28.3l.2-.4-.2.4M69 28l-.1.1v.2-.1l.1-.2v-.2c.1.1.1.1 0 .2.1 0 .1 0 0 0" class="st31"/><use class="st31" xlink:href="#reuse-16"/><use class="st31" xlink:href="#reuse-16"/><use class="st31" xlink:href="#reuse-16"/><path d="M69 28l-.1.1v.2-.1l.1-.2v-.2c.1.2 0 .2 0 .2l.1-.2-.1.2c.1 0 .1 0 0 0" class="st30"/><use class="st30" xlink:href="#reuse-17"/><use class="st29" xlink:href="#reuse-17"/><path d="M69 28l-.1.1v.2-.1l.1-.2v-.1.1l.1-.1-.1.1" class="st28"/><use class="st27" xlink:href="#reuse-18"/><use class="st26" xlink:href="#reuse-18"/><use class="st25" xlink:href="#reuse-18"/><use class="st24" xlink:href="#reuse-18"/><use class="st23" xlink:href="#reuse-18"/><use class="st22" xlink:href="#reuse-19"/><use class="st21" xlink:href="#reuse-19"/><use class="st20" xlink:href="#reuse-19"/><path d="M69 28l-.1.1v.2-.1l.1-.2-.1.1.1-.1" class="st19"/><use class="st18" xlink:href="#reuse-20"/><use class="st17" xlink:href="#reuse-20"/><path d="M69 28.2l-.1.1.1-.1.1-.1-.1.1.1-.1-.1.1c0-.1 0 0 0 0M69.1 28" class="st16"/><path d="M69 28.2l-.1.1.1-.1.1-.1-.1.1.1-.1-.1.1" class="st15"/><path d="M69 28.2l-.1.1.1-.1.1-.1-.1.1s0-.1 0 0" class="st14"/><path d="M69 28.2l-.1.1.1-.1.1-.1-.1.1c0-.1 0 0 0 0s0-.1 0 0" class="st13"/><path d="M69 28.2l-.1.1.1-.1v-.1.1c0-.1 0 0 0 0 0-.1 0 0 0 0" class="st12"/><path d="M69 28.2l-.1.1.1-.1v-.1.1c0-.1 0 0 0 0" class="st11"/><path d="M69 28.2l-.1.1.1-.1c-.1 0 0 0 0 0-.1 0 0 0 0 0" class="st10"/><path d="M68.9 28.3l.1-.2-.1.2v-.1.1" class="st9"/><path d="M68.9 28.3l.1-.1-.1.1v-.1.1" class="st8"/><path d="M68.9 28.3v-.1.1c0-.1 0 0 0 0 0-.1 0-.1 0 0" class="st7"/><use class="st6" xlink:href="#reuse-21"/><use class="st5" xlink:href="#reuse-21"/><use class="st31" xlink:href="#reuse-14"/></g><defs><path id="SVGID_11_" d="M68.7 28.1l.3-.3v.1l-.3.2z"/></defs><clipPath id="SVGID_12_"><use overflow="visible" xlink:href="#SVGID_11_"/></clipPath><g clip-path="url(#SVGID_12_)"><path d="M68.7 28.1l.3-.3v.1l-.3.2" class="st31"/><use class="st31" xlink:href="#reuse-22"/><path d="M68.7 28.1l.1-.1h.1l.1-.1.1-.1-.4.3" class="st31"/><use class="st31" xlink:href="#reuse-22"/><use class="st31" xlink:href="#reuse-22"/><use class="st30" xlink:href="#reuse-23"/><use class="st30" xlink:href="#reuse-23"/><use class="st29" xlink:href="#reuse-23"/><use class="st28" xlink:href="#reuse-23"/><use class="st27" xlink:href="#reuse-23"/><use class="st26" xlink:href="#reuse-23"/><path d="M68.7 28.1l.1-.1h.1l.1-.1.1-.1-.1.2-.3.1" class="st25"/><path d="M68.7 28.1l.1-.1h.1l.1-.1.1-.1-.2.2-.2.1" class="st24"/><path d="M68.7 28.1l.1-.1h.1l.1-.1.1-.1-.4.3c.1-.1 0-.1 0 0" class="st23"/><path d="M68.7 28.1l.1-.1h.1l.1-.1.1-.1H69l-.3.3c.1-.1 0-.1 0 0" class="st22"/><use class="st21" xlink:href="#reuse-24"/><use class="st20" xlink:href="#reuse-24"/><use class="st19" xlink:href="#reuse-24"/><path d="M68.7 28.1l.1-.1h.1l.1-.1.1-.1H69l-.3.3c.1-.1 0 0 0 0" class="st18"/><path d="M68.7 28.1l.1-.1h.1l.1-.1.1-.1H69l-.3.3c0-.1 0 0 0 0" class="st17"/><use class="st16" xlink:href="#reuse-25"/><use class="st15" xlink:href="#reuse-25"/><use class="st14" xlink:href="#reuse-26"/><use class="st13" xlink:href="#reuse-26"/><use class="st12" xlink:href="#reuse-26"/><path d="M68.7 28.1l.1-.1-.1.1" class="st11"/><path d="M68.7 28.1s.1-.1 0 0c.1-.1.1-.1 0 0" class="st10"/><path d="M68.7 28.1s.1-.1 0 0c.1-.1 0-.1 0 0" class="st9"/><path d="M68.7 28.1s0-.1 0 0c0-.1 0 0 0 0" class="st8"/><path d="M68.7 28.1" class="st7"/></g><defs><path id="SVGID_13_" d="M69.3 27.2l4.2-6.9.1-.1-4.3 7c.1 0 .1 0 0 0z"/></defs><clipPath id="SVGID_14_"><use overflow="visible" xlink:href="#SVGID_13_"/></clipPath><g clip-path="url(#SVGID_14_)"><path d="M73.6 20.3l-4.2 6.9-.1.1.2-.4.2-.3.2-.3.2-.3.2-.3.2-.3.2-.3.2-.3.2-.3.2-.3.2-.3.2-.3.2-.3.2-.3.2-.3.2-.3.2-.3.2-.3.2-.3.5-1.2c-.1 0 0 0 0 0" class="st5"/></g><g><path fill="#8a8a8a" d="M69.5 27.1l-.1.1 4.2-6.9.1-.1z"/></g><g><defs><path id="SVGID_15_" d="M67.5 25.9l.3.1.1.2-.7-.4.3.1z"/></defs><clipPath id="SVGID_16_"><use overflow="visible" xlink:href="#SVGID_15_"/></clipPath><g clip-path="url(#SVGID_16_)"><path d="M67.3 25.7l.2.1h.4l.1.2a1 1 0 01-.7-.3" class="st5"/></g></g><g><defs><path id="SVGID_17_" d="M69.9 28.9l-.4.1h.1l.3-.1z"/></defs><clipPath id="SVGID_18_"><use overflow="visible" xlink:href="#SVGID_17_"/></clipPath><g clip-path="url(#SVGID_18_)"><path d="M69.9 28.9l-.4.1h.1l.3-.1" class="st5"/></g></g><g><defs><path id="SVGID_19_" d="M67 26.1c-.1-.4-.1-.7-.4-.9l1.3.9H67z"/></defs><clipPath id="SVGID_20_"><use overflow="visible" xlink:href="#SVGID_19_"/></clipPath><g clip-path="url(#SVGID_20_)"><path d="M67 25.8v-.4l1 .7h-.6l-.4-.3" class="st5"/><path d="M67 25.9l.6.1-.6-.1" class="st6"/><path d="M67 25.9l.6.1H67v-.1" class="st7"/><path d="M67 26h.6-.6" class="st8"/><use class="st9" xlink:href="#reuse-27"/><use class="st10" xlink:href="#reuse-27"/><use class="st11" xlink:href="#reuse-27"/><use class="st12" xlink:href="#reuse-27"/><use class="st13" xlink:href="#reuse-27"/><use class="st14" xlink:href="#reuse-27"/><use class="st15" xlink:href="#reuse-27"/><use class="st16" xlink:href="#reuse-27"/><use class="st17" xlink:href="#reuse-27"/><use class="st18" xlink:href="#reuse-27"/><use class="st19" xlink:href="#reuse-27"/><use class="st20" xlink:href="#reuse-27"/><use class="st21" xlink:href="#reuse-27"/><use class="st22" xlink:href="#reuse-27"/><use class="st23" xlink:href="#reuse-27"/><use class="st24" xlink:href="#reuse-27"/><use class="st25" xlink:href="#reuse-27"/><use class="st26" xlink:href="#reuse-27"/><use class="st27" xlink:href="#reuse-27"/><path d="M67 26H67.8 67" class="st28"/><path d="M67 26h.8-.8" class="st29"/><path d="M67 26h.8-.8M67 26h.8-.8" class="st30"/><path d="M67 26h.8v.1L67 26M67 26l.8.1-.8-.1" class="st31"/><path d="M67 26h.8l.1.1-.9-.1M67 26.1h.9-.9" class="st31"/></g></g><g><defs><path id="SVGID_21_" d="M69.8 28.9h-.7c-.3-.1-.5-.5-.5-.5h.1l.4.4.5.2.2-.1z"/></defs><clipPath id="SVGID_22_"><use overflow="visible" xlink:href="#SVGID_21_"/></clipPath><g clip-path="url(#SVGID_22_)"><path d="M69.8 28.9c-.7.2-1.1-.4-1.3-.6h.1l.4.4.5.2h.3" class="st31"/><use class="st31" xlink:href="#reuse-28"/><use class="st31" xlink:href="#reuse-28"/><use class="st31" xlink:href="#reuse-28"/><use class="st31" xlink:href="#reuse-28"/><use class="st30" xlink:href="#reuse-28"/><use class="st30" xlink:href="#reuse-28"/><use class="st29" xlink:href="#reuse-28"/><use class="st28" xlink:href="#reuse-28"/><use class="st27" xlink:href="#reuse-28"/><use class="st26" xlink:href="#reuse-28"/><use class="st25" xlink:href="#reuse-28"/><use class="st24" xlink:href="#reuse-28"/><use class="st23" xlink:href="#reuse-28"/><use class="st22" xlink:href="#reuse-28"/><use class="st21" xlink:href="#reuse-28"/><use class="st20" xlink:href="#reuse-28"/><use class="st19" xlink:href="#reuse-28"/><use class="st18" xlink:href="#reuse-28"/><use class="st17" xlink:href="#reuse-28"/><use class="st16" xlink:href="#reuse-28"/><use class="st15" xlink:href="#reuse-28"/><use class="st14" xlink:href="#reuse-28"/><use class="st13" xlink:href="#reuse-28"/><use class="st12" xlink:href="#reuse-28"/><use class="st11" xlink:href="#reuse-28"/><use class="st10" xlink:href="#reuse-28"/><use class="st9" xlink:href="#reuse-28"/><use class="st8" xlink:href="#reuse-28"/><use class="st7" xlink:href="#reuse-28"/><use class="st6" xlink:href="#reuse-28"/><use class="st5" xlink:href="#reuse-28"/></g></g><g><defs><path id="SVGID_23_" d="M69.6 28.9l-.6-.1h.1l.5.1z"/></defs><clipPath id="SVGID_24_"><use overflow="visible" xlink:href="#SVGID_23_"/></clipPath><g clip-path="url(#SVGID_24_)"><path d="M69.6 28.9l-.6-.1h.1l.5.1" class="st5"/></g></g><g><defs><path id="SVGID_25_" d="M69.1 28.7l-.5-.4h.1l.4.4z"/></defs><clipPath id="SVGID_26_"><use overflow="visible" xlink:href="#SVGID_25_"/></clipPath><g clip-path="url(#SVGID_26_)"><path d="M69.1 28.7l-.5-.4h.1l.4.4" class="st5"/></g></g><g><defs><path id="SVGID_27_" d="M70 29c0-1.1-.2-2-.4-1.9l4.2-6.9c.2-.1.6.4 1 1.1L70 29z"/></defs><clipPath id="SVGID_28_"><use overflow="visible" xlink:href="#SVGID_27_"/></clipPath><g clip-path="url(#SVGID_28_)"><path d="M74.6 21.3L70 29l4.6-7.7M74.6 21.3L70 29l4.6-7.7" class="st31"/><path d="M74.6 21.2L70 28.9l4.6-7.7M74.6 21.2L70 28.9l4.6-7.7M74.6 21.2L70 28.8l4.6-7.6" class="st36"/><path d="M74.6 21.2L70 28.8l4.6-7.6c0-.1 0-.1 0 0M74.6 21.1L70 28.7l4.6-7.6c-.1 0-.1 0 0 0" class="st36"/><path d="M74.5 21.1L70 28.7v-.1l4.5-7.5" class="st36"/><path d="M74.5 21.1l-4.6 7.6v-.1l4.6-7.5M74.5 21l-4.6 7.5v-.1l4.6-7.4" class="st48"/><path d="M74.5 21L70 28.5v-.1l4.5-7.4" class="st48"/><path d="M74.5 21L70 28.5v-.1l4.5-7.4c-.1-.1-.1-.1 0 0M74.4 20.9l-4.5 7.4v-.1l4.5-7.3" class="st48"/><path d="M74.4 20.8l-4.5 7.4v-.1l4.5-7.3c-.1 0 0 0 0 0M74.3 20.8l-4.4 7.3 4.4-7.3M74.3 20.7L69.9 28l4.4-7.3" class="st48"/><use class="st48" xlink:href="#reuse-29"/><use class="st36" xlink:href="#reuse-29"/><use class="st36" xlink:href="#reuse-29"/><path d="M74.3 20.7L69.9 28l4.4-7.3c-.1-.1-.1 0 0 0M74.2 20.6l-4.4 7.2 4.4-7.2M74.2 20.6l-4.4 7.2 4.4-7.2M74.2 20.6l-4.4 7.2 4.4-7.2" class="st36"/><path d="M74.2 20.6l-4.4 7.2 4.4-7.2M74.2 20.6l-4.3 7.2 4.3-7.2M74.2 20.6l-4.3 7.2 4.3-7.2M74.2 20.6l-4.3 7.2 4.3-7.2c0-.1 0-.1 0 0M74.2 20.5l-4.3 7.2 4.3-7.2c-.1 0 0 0 0 0" class="st31"/><path d="M74.1 20.5l-4.3 7.2 4.3-7.2M74.1 20.5l-4.3 7.1 4.3-7.1" class="st30"/><use class="st29" xlink:href="#reuse-30"/><use class="st28" xlink:href="#reuse-30"/><use class="st27" xlink:href="#reuse-30"/><path d="M74.1 20.5l-4.3 7.1 4.3-7.1c0-.1 0-.1 0 0" class="st26"/><path d="M74.1 20.4l-4.3 7.1 4.3-7.1c-.1 0 0 0 0 0" class="st25"/><use class="st24" xlink:href="#reuse-31"/><use class="st23" xlink:href="#reuse-31"/><path d="M74 20.4l-4.3 7 4.3-7" class="st22"/><path d="M74 20.4l-4.2 7 4.2-7" class="st21"/><path d="M74 20.3l-4.2 7 4.2-7" class="st20"/><use class="st19" xlink:href="#reuse-32"/><use class="st18" xlink:href="#reuse-32"/><use class="st17" xlink:href="#reuse-32"/><use class="st16" xlink:href="#reuse-32"/><path d="M73.9 20.3l-4.2 6.9 4.2-6.9" class="st15"/><use class="st14" xlink:href="#reuse-33"/><use class="st13" xlink:href="#reuse-33"/><use class="st12" xlink:href="#reuse-33"/><use class="st11" xlink:href="#reuse-34"/><use class="st10" xlink:href="#reuse-34"/><use class="st9" xlink:href="#reuse-34"/><use class="st8" xlink:href="#reuse-35"/><use class="st7" xlink:href="#reuse-35"/><use class="st6" xlink:href="#reuse-35"/><use class="st5" xlink:href="#reuse-35"/></g></g><g><defs><path id="SVGID_29_" d="M68.5 28.3l-2.2-3.4v-.1l2.2 3.5z"/></defs><clipPath id="SVGID_30_"><use overflow="visible" xlink:href="#SVGID_29_"/></clipPath><g clip-path="url(#SVGID_30_)"><path d="M66.4 24.8l2.2 3.5h-.1l-.1-.2-.1-.1-.1-.2-.1-.2-.1-.1-.1-.2-.1-.2-.1-.2-.1-.2-.1-.2-.1-.2-.1-.2-.1-.2H67l-.1-.2-.1-.2-.1-.2-.1-.2-.1-.2-.1.1c-.1-.1-.1-.1 0-.2" class="st5"/></g></g><g><path fill="#828282" d="M68.7 28.3h-.1l-2.2-3.5h.1z"/></g><g><defs><path id="SVGID_31_" d="M68.2 24.9l1.4 2.3c.2.2.3.9.3 1.8L68 25.9c.2-.5.3-.9.2-1z"/></defs><clipPath id="SVGID_32_"><use overflow="visible" xlink:href="#SVGID_31_"/></clipPath><g clip-path="url(#SVGID_32_)"><path d="M70 29l-2-3.1 2 3.1M70 29l-2-3.1 2 3.1M70 28.9l-2-3.1 2 3.1M70 28.9l-1.9-3.1 1.9 3.1c0-.1 0-.1 0 0" class="st31"/><path d="M70 28.8l-1.9-3v-.1l1.9 3.1c0-.1 0-.1 0 0" class="st30"/><path d="M70 28.7l-1.8-3v-.1l1.8 2.9c-.1.1-.1.1 0 .2" class="st30"/><path d="M69.9 28.6l-1.8-2.9v-.1l1.8 2.9v.1" class="st29"/><path d="M69.9 28.4l-1.8-2.9v-.1l1.7 2.8.1.2" class="st28"/><path d="M69.9 28.3l-1.7-2.8v-.1l1.7 2.7v.2" class="st27"/><path d="M69.9 28.1l-1.7-2.7v-.1l1.7 2.7v.1" class="st26"/><path d="M69.9 28l-1.7-2.7v-.1l1.6 2.6.1.2" class="st25"/><path d="M69.9 27.9l-1.6-2.6v-.1l1.6 2.7c0-.1 0 0 0 0" class="st24"/><path d="M69.8 27.8l-1.6-2.6 1.6 2.6c0-.1 0 0 0 0" class="st23"/><path d="M69.8 27.7l-1.6-2.5 1.6 2.5" class="st22"/><path d="M69.8 27.6l-1.6-2.5 1.6 2.5" class="st21"/><path d="M69.8 27.6l-1.5-2.5 1.5 2.5c0-.1 0 0 0 0" class="st20"/><path d="M69.8 27.5L68.3 25l1.5 2.5" class="st19"/><path d="M69.8 27.5L68.3 25l1.5 2.5c0-.1 0-.1 0 0" class="st18"/><path d="M69.8 27.4L68.3 25l1.5 2.4c-.1 0-.1 0 0 0" class="st17"/><path d="M69.7 27.4L68.2 25l1.5 2.4" class="st16"/><path d="M69.7 27.3L68.2 25l1.5 2.3" class="st15"/><use class="st14" xlink:href="#reuse-36"/><use class="st13" xlink:href="#reuse-36"/><path d="M69.7 27.3L68.2 25l1.5 2.3c0-.1 0-.1 0 0" class="st12"/><path d="M69.7 27.2l-1.5-2.3.1.1.1.1v.1l.1.1.1.1v.2l.1.1.1.1v.1l.1.1.1.1.1.1v.2l.1.1.1.1.1.1v.1l.1.2.1.1.1.1" class="st11"/></g></g><g><defs><path id="SVGID_33_" d="M67.7 25.4l-.4-.3-.8-.3h1.6c.2 0 .1.4-.1 1h-.1l-.2-.4z"/></defs><clipPath id="SVGID_34_"><use overflow="visible" xlink:href="#SVGID_33_"/></clipPath><g clip-path="url(#SVGID_34_)"><path d="M68 25.9h-.1v-.1l.1.1c0-.1 0 0 0 0" class="st5"/><use class="st6" xlink:href="#reuse-37"/><use class="st7" xlink:href="#reuse-37"/><use class="st8" xlink:href="#reuse-37"/><use class="st9" xlink:href="#reuse-37"/><use class="st10" xlink:href="#reuse-37"/><use class="st11" xlink:href="#reuse-37"/><use class="st12" xlink:href="#reuse-37"/><use class="st13" xlink:href="#reuse-37"/><use class="st14" xlink:href="#reuse-37"/><use class="st15" xlink:href="#reuse-37"/><use class="st16" xlink:href="#reuse-37"/><use class="st17" xlink:href="#reuse-37"/><use class="st18" xlink:href="#reuse-37"/><path d="M68.1 25.8h-.2v-.1l.2.1" class="st19"/><path d="M68.1 25.8l-.2-.1.2.1" class="st20"/><path d="M68.1 25.8l-.2-.1h.2v.1" class="st21"/><use class="st22" xlink:href="#reuse-38"/><use class="st23" xlink:href="#reuse-38"/><use class="st24" xlink:href="#reuse-38"/><use class="st25" xlink:href="#reuse-38"/><use class="st26" xlink:href="#reuse-38"/><use class="st27" xlink:href="#reuse-38"/><use class="st28" xlink:href="#reuse-38"/><use class="st29" xlink:href="#reuse-38"/><path d="M68.1 25.7h-.2.2M68.1 25.7h-.2.2" class="st30"/><path d="M68.1 25.7h-.2.2M68.1 25.7h-.2.2M68.1 25.7h-.2.2M68.1 25.7h-.2v-.1l.2.1" class="st31"/><path d="M68.1 25.6h-.3v-.1l.3.1" class="st31"/><path d="M68.2 25.6h-.4v-.1l.4.1c0-.1 0-.1 0 0M68.2 25.5h-.4v-.1l.4.1c0-.1 0 0 0 0" class="st31"/><path d="M68.2 25.4h-.5v-.1l.5.1" class="st30"/><path d="M68.2 25.4h-.5.5c0-.1 0 0 0 0" class="st30"/><path d="M68.2 25.3h-.6.6" class="st29"/><path d="M68.2 25.3H67.4h.8c0-.1 0-.1 0 0" class="st28"/><path d="M68.2 25.2h-.9.9" class="st27"/><path d="M68.2 25.2h-1 1c0-.1 0-.1 0 0" class="st26"/><path d="M68.3 25.1h-1-.1 1.1" class="st25"/><path d="M68.3 25.1h-1.1-.1 1.2" class="st24"/><path d="M68.3 25h-1.1-.1 1.2" class="st23"/><path d="M68.3 25h-1.2-.1 1.3" class="st22"/><path d="M68.3 25H67h-.1 1.4c-.1 0-.1 0 0 0" class="st21"/><path d="M68.2 25h-1.3 1.3" class="st20"/><path d="M68.2 25h-1.4 1.4c0-.1 0 0 0 0" class="st19"/><use class="st18" xlink:href="#reuse-39"/><use class="st17" xlink:href="#reuse-39"/><use class="st16" xlink:href="#reuse-40"/><use class="st15" xlink:href="#reuse-40"/><use class="st14" xlink:href="#reuse-40"/><use class="st13" xlink:href="#reuse-40"/><use class="st12" xlink:href="#reuse-41"/><use class="st11" xlink:href="#reuse-41"/><use class="st10" xlink:href="#reuse-41"/><use class="st9" xlink:href="#reuse-41"/><use class="st8" xlink:href="#reuse-41"/><path d="M68.2 24.9l-1.7-.1h1.2l.1.1h.4" class="st7"/></g></g><g><defs><path id="SVGID_35_" d="M68.1 25.5l.6.2 1.2 1.9a4 4 0 01-1.2.7l-2.2-3.5 1.6.7z"/></defs><clipPath id="SVGID_36_"><use overflow="visible" xlink:href="#SVGID_35_"/></clipPath><g clip-path="url(#SVGID_36_)"><path d="M68.7 25.7l1.2 1.9-1.2-1.9M68.6 25.7l1.2 1.9-1.2-1.9" class="st31"/><path d="M68.6 25.7l1.2 1.9-1.2-1.9M68.5 25.7l1.3 2-1.3-2M68.4 25.6l1.3 2h-.1l-1.2-2" class="st36"/><path d="M68.4 25.6l1.3 2.1-.1.1-1.5-2.3.1.1h.2M68.1 25.5l1.5 2.3-1.5-2.3c-.1 0-.1 0 0 0M68 25.4l1.5 2.4-1.5-2.4M67.9 25.4l1.6 2.4-1.6-2.4" class="st36"/><path d="M67.9 25.4l1.6 2.5-1.6-2.5M67.8 25.4l1.6 2.5-1.6-2.5c0-.1 0 0 0 0M67.8 25.3l1.6 2.6-1.6-2.6" class="st31"/><path d="M67.8 25.3l1.7 2.6-1.7-2.6c-.1 0-.1 0 0 0M67.7 25.3l1.7 2.6-1.7-2.6" class="st31"/><path d="M67.7 25.3l1.7 2.7-1.7-2.7c-.1 0 0 0 0 0" class="st30"/><path d="M67.6 25.3l1.7 2.7-1.7-2.7c0-.1 0-.1 0 0" class="st30"/><path d="M67.6 25.2l1.7 2.7-1.7-2.7" class="st29"/><path d="M67.6 25.2l1.8 2.8-1.8-2.8c-.1 0-.1 0 0 0" class="st28"/><use class="st27" xlink:href="#reuse-42"/><use class="st26" xlink:href="#reuse-42"/><path d="M67.5 25.2l1.8 2.8-1.8-2.8c-.1 0-.1 0 0 0" class="st25"/><path d="M67.4 25.1l1.8 2.9-1.8-2.9" class="st24"/><path d="M67.4 25.1l1.9 2.9-1.9-2.9c-.1 0 0 0 0 0" class="st23"/><path d="M67.3 25.1l1.9 2.9-1.9-2.9" class="st22"/><path d="M67.3 25.1l1.9 3-1.9-3" class="st21"/><path d="M67.2 25.1l1.9 3-1.9-3" class="st20"/><path d="M67.2 25l1.9 3-1.9-3" class="st19"/><use class="st18" xlink:href="#reuse-43"/><use class="st17" xlink:href="#reuse-43"/><path d="M67 25l2 3.2-2-3.2" class="st16"/><path d="M67 25l2 3.2-2-3.2c0-.1 0 0 0 0" class="st15"/><path d="M66.9 24.9l2.1 3.2-2.1-3.2" class="st14"/><path d="M66.9 24.9l2.1 3.3-2.1-3.3" class="st13"/><use class="st12" xlink:href="#reuse-44"/><use class="st11" xlink:href="#reuse-44"/><path d="M66.8 24.9l2.1 3.3-2.1-3.3c-.1 0-.1 0 0 0" class="st10"/><path d="M66.7 24.9l2.2 3.4-2.2-3.4" class="st9"/><path d="M66.7 24.8l2.2 3.4-2.2-3.4c-.1 0 0 0 0 0" class="st8"/><use class="st7" xlink:href="#reuse-45"/><use class="st6" xlink:href="#reuse-45"/><path d="M66.5 24.8l2.2 3.5h-.1l-2.1-3.5" class="st5"/></g></g><g><path d="M64.3 24v4.9h1.6V24l-.8.2-.8-.2zM64.1 22.7a1 1 0 012 0c0 .5-.4 1-1 1a1 1 0 01-1-1z" class="st3"/></g><g><path d="M64.2 32.5v-1.9h.3v1.9h-.3zM65.4 32.5l-.3-.9-.1-.2-.1-.3v1.5h-.2v-1.9h.3l.4 1.4-.1-.7v-.7h.3v1.9h-.2zM66.2 32.6l-.3-.1v-.2l.2.1c.1 0 .2-.1.2-.3 0-.4-.5-.4-.5-.9 0-.3.1-.5.4-.5l.3.1v.2l-.2-.1-.2.2c0 .3.5.4.5.9.1.3-.1.6-.4.6zM67.3 30.9v1.6H67v-1.6h-.3v-.2h.8v.2h-.2zM67.7 32.5v-1.9h.3v1.9h-.3zM68.6 30.9v1.6h-.2v-1.6h-.3v-.2h.8v.2h-.3zM69.9 32.1c0 .3-.1.5-.4.5-.3 0-.4-.2-.4-.5v-1.4h.2v1.4c0 .1 0 .3.2.3s.2-.1.2-.3v-1.4h.2v1.4zM70.6 30.9v1.6h-.2v-1.6h-.3v-.2h.8v.2h-.3zM71.9 32.1c0 .3-.1.5-.5.5l-.4-.2v-.8l.1-.7c.1-.2.2-.2.4-.2l.4.2.1.8-.1.4zm-.3-1l-.2-.2-.1.1-.1.5v.6l.2.2.2-.1v-.6-.5zM73.3 32.5h-.2l-.4-1.9h.3l.2 1.1v0l.1-.4.1-.7h.2l-.3 1.9zM74.4 32.5l-.1-.4h-.4l-.1.4h-.2l.4-1.9h.2l.4 1.9h-.2zm-.3-1.5l-.2.9h.3l-.1-.9zM74.8 32.5v-1.9h.2v1.7h.4v.2h-.6zM75.6 32.5v-1.9h.7v.2h-.4v.6h.4v.2h-.4v.6h.4v.2h-.7zM77.1 32.5l-.3-.9-.1-.2-.1-.3v1.5h-.2v-1.9h.2l.4 1.4-.1-.7v-.7h.3v1.9h-.1zM78.2 32.6c-.5 0-.6-.5-.6-.9s0-1 .6-1l.2.1v.2h-.2c-.3 0-.3.5-.3.7 0 .2 0 .7.4.7h.1v.2h-.2zM78.6 32.5v-1.9h.3v1.9h-.3zM79.7 32.5l-.1-.4h-.4l-.1.4H79l.4-1.9h.2l.4 1.9h-.3zm-.2-1.5l-.2.9h.3l-.1-.9zM80.8 32.5l-.3-.9-.1-.2-.1-.3v1.5h-.2v-1.9h.2l.4 1.4-.1-.7v-.7h.4v1.9h-.2zM82.2 32.1c0 .3-.1.5-.5.5l-.4-.2-.1-.8.1-.7c.1-.2.2-.2.4-.2l.4.2.1.8v.4zm-.3-1l-.2-.2-.1.1-.1.5v.6l.2.2.2-.1v-.6-.5zM83.9 32.4l-.5.1h-.2v-1.9h.3c.2 0 .3 0 .4.2.2.2.2.5.2.8 0 .3 0 .6-.2.8zm-.1-1.1c0-.2-.1-.4-.3-.4v1.4c.2 0 .3-.1.4-.3v-.3l-.1-.4zM84.3 32.5v-1.9h.7v.2h-.4v.6h.4v.2h-.4v.6h.4v.2h-.7zM64.8 35.5c-.5 0-.6-.5-.6-.9s0-1 .6-1l.2.1v.2h-.2c-.3 0-.3.5-.3.7 0 .2 0 .7.4.7h.1v.2h-.2zM66.1 35c0 .3-.1.5-.5.5l-.4-.2-.1-.8.1-.7c.1-.2.2-.2.4-.2l.4.2.1.8v.4zm-.3-1l-.2-.2-.1.1-.1.5v.6l.2.2.2-.1v-.6-.5zM67.4 35.5v-.8-.2-.3l-.2 1.3H67l-.2-1.3-.1 1.3h-.2l.2-1.9h.2l.2.8v.1l.1.5v-.3-.2-.1l.1-.7h.2l.2 1.9h-.3zM68.5 34.6l-.4.1v.8h-.3v-1.9h.3l.3.1c.2.1.2.3.2.5.1.1.1.3-.1.4zm-.3-.8v.6c.2 0 .3-.1.3-.3-.1-.1-.1-.3-.3-.3zM68.9 35.5v-1.9h.7v.2h-.4v.6h.4v.2h-.4v.6h.4v.2h-.7zM70.3 33.8v1.6H70v-1.6h-.3v-.2h.8v.2h-.2zM70.7 35.5v-1.9h.3v1.9h-.3zM71.7 33.8v1.6h-.2v-1.6h-.3v-.2h.8v.2h-.3zM72.1 35.5v-1.9h.3v1.9h-.3zM73.1 35.5h-.2l-.4-1.9h.2l.2 1.1v0l.1-.4.1-.7h.2l-.2 1.9zM73.7 35.5v-1.9h.3v1.9h-.3zM75 35.3l-.5.1h-.2v-1.9h.3c.2 0 .3 0 .4.2.2.2.2.5.2.8 0 .3 0 .7-.2.8zm-.1-1.1c0-.2-.1-.4-.3-.4v1.4c.2 0 .3-.1.4-.3v-.3l-.1-.4zM76.1 35.5l-.1-.4h-.4l-.1.4h-.2l.4-1.9h.2l.4 1.9h-.2zm-.3-1.5l-.2.9h.4l-.2-.9zM77.2 35.3l-.5.1h-.2v-1.9h.3c.2 0 .3 0 .4.2.2.2.2.5.2.8 0 .3 0 .7-.2.8zm-.1-1.1c0-.2-.1-.4-.3-.4v1.4c.2 0 .3-.1.4-.3v-.3l-.1-.4zM78.4 35.5v-1.9h.7v.2h-.4v.6h.4v.2h-.4v.6h.4v.2h-.7zM80.3 35.5v-.8-.2-.3l-.2 1.3h-.2l-.2-1.3-.1 1.3h-.2l.2-1.9h.2l.2.8v.1l.1.5v-.3-.2-.1l.1-.7h.2l.2 1.9h-.3zM81.5 34.6l-.4.1v.8h-.3v-1.9h.3l.3.1c.2.1.2.3.2.5l-.1.4zm-.4-.8v.6c.2 0 .3-.1.3-.3 0-.1-.1-.3-.3-.3zM82.4 35.5l-.3-.9v.9h-.3v-1.9h.3l.3.1.2.4c0 .2-.1.4-.3.5l.3.9h-.2zm-.1-1.6l-.2-.1v.6h.2l.1-.3-.1-.2zM82.9 35.5v-1.9h.7v.2h-.4v.6h.4v.2h-.4v.6h.4v.2h-.7zM84.2 35.5l-.3-.1v-.2l.2.1c.1 0 .2-.1.2-.3 0-.4-.5-.4-.5-.9 0-.3.1-.5.4-.5l.3.1v.2l-.2-.1-.2.2c0 .3.5.4.5.9 0 .4-.2.6-.4.6zM85.5 35.5l-.1-.4H85l-.1.4h-.2l.4-1.9h.2l.4 1.9h-.2zm-.3-1.5l-.2.9h.3l-.1-.9zM86.5 35.5l-.3-.9v.9h-.3v-1.9h.3l.3.1.2.4c0 .2 0 .4-.3.5l.3.9h-.2zm-.1-1.6l-.2-.1v.6h.2l.1-.3-.1-.2zM87 35.5v-1.9h.3v1.9H87zM88.2 35.5l-.1-.4h-.4l-.1.4h-.2l.4-1.9h.2l.4 1.9h-.2zm-.3-1.5l-.2.9h.3l-.1-.9zM88.6 35.5v-1.9h.3v1.7h.4v.2h-.7z" class="st54"/></g></g></g></svg>