<?xml version="1.0" encoding="UTF-8"?>
<!-- Generator: Adobe Illustrator 23.0.6, SVG Export Plug-In . SVG Version: 6.00 Build 0)  -->
<svg version="1.1" id="Capa_1" xmlns="http://www.w3.org/2000/svg" xmlns:xlink="http://www.w3.org/1999/xlink" x="0px" y="0px" viewBox="0 0 198.5 63.8" style="enable-background:new 0 0 198.5 63.8;" xml:space="preserve">
<style type="text/css">
	.st0{fill:#FFFFFF;}
	.st1{fill:#75C1A2;}
</style>
<title>logo_ikinsu_RGB</title>
<g>
	<path class="st0" d="M0,4.9C0,2.3,2.4,0,5,0c2.7,0.1,4.8,2.2,4.9,4.9c0,2.7-2.3,5-4.9,5C2.3,9.8,0.1,7.6,0,4.9z"/>
	<path class="st1" d="M63,4.9c0-2.6,2.4-4.9,5-4.9c2.7,0.1,4.8,2.2,4.9,4.9c0,2.7-2.3,5-4.9,5C65.3,9.8,63.1,7.6,63,4.9z"/>
	<rect x="0.1" y="18.5" class="st0" width="9.9" height="45.3"/>
	<rect x="63.1" y="18.5" class="st0" width="9.9" height="45.3"/>
	<path class="st0" d="M107.2,63.7V35.4c0-6.8-5.8-9.7-13.5-5.8v34.2h-9.8V18.5h8.7l1.1,1.3c3.5-1.2,10-2.4,15.8,0.4   c4.5,2.1,7.7,5.6,7.7,12.5v31.2L107.2,63.7z"/>
	<path class="st0" d="M175.2,18.5v28.4c0,6.8,5.8,9.7,13.5,5.8V18.5h9.8v45.3h-8.7l-1.1-1.3c-3.5,1.2-10,2.4-15.8-0.3   c-4.5-2.1-7.7-5.6-7.7-12.5V18.5L175.2,18.5z"/>
	<path class="st0" d="M134.6,50.4c0,1.6,1.6,4.4,6.6,4.4c4.2,0,6.1-2.6,6.1-4.9c0-9.3-19.9-4.3-21.4-19.6   c-0.5-5.6,3.4-11.9,15.1-11.9c6.3,0,9.9,2.6,9.9,2.6l-2.8,7.9c0,0-2-2-7.1-2c-5.5,0-4.9,2.6-4.6,3.7c1.1,5.1,21.1,3.7,21.1,19.6   c0,6.9-4.9,13.6-16.3,13.6c-10.5,0-16.1-5.8-16.3-12.4L134.6,50.4z"/>
	<polygon class="st0" points="30.7,29.5 30.7,0.1 20.8,0.1 20.8,37.5  "/>
	<polygon class="st0" points="20.8,50.2 20.8,63.7 30.7,63.7 30.7,42.2  "/>
	<path class="st0" d="M40,34.8l-7.4,6l13.5,23h11.6C47.7,47.9,42.6,39.1,40,34.8z"/>
	<polygon class="st1" points="20.8,37.5 44.3,18.5 50.5,26.3 20.8,50.2  "/>
</g>
</svg>